<svg fill="none" xmlns="http://www.w3.org/2000/svg" xmlns:xlink="http://www.w3.org/1999/xlink"><linearGradient id="a" gradientUnits="userSpaceOnUse" x1="28.022" x2="16.189" y1="22.991" y2="8.569"><stop offset="0" stop-color="#fff"/><stop offset="1"/></linearGradient><path d="m9.018 0 9.019 16h-18.037z" fill="url(#a)"/><path clip-rule="evenodd" d="m51.634 12.028h-6.492v-9.976h6.492v1.256h-5.024v3.007h4.37v1.255h-4.37v3.202h5.024v1.255zm-14.063 0h-7.235v-1.096l5.342-7.624h-5.253v-1.256h7.058v1.097l-5.342 7.623h5.43zm21.88 0h6.333v-1.256h-2.423v-7.464h2.423v-1.256h-6.332v1.256h2.441v7.465h-2.441v1.255zm18.22 0h-1.468v-8.72h-3.36v-1.256h8.225v1.256h-3.398v8.72z" fill="#333" fill-rule="evenodd"/></svg>